# xmcd CD database file
#
# Track frame offsets:
#	150
#	18533
#	33469
#	74996
#	104650
#	138151
#	149529
#	167481
#
# Disc length: 2720 seconds
#
# Revision: 0
# Processed by: cddbd v1.5.1PL0 Copyright (c) Steve Scherf et al.
# Submitted via: CDex 1.51
#
DISCID=790a9e08
DTITLE=John Handy Concert Ensemble - Projections
DYEAR=1998
DGENRE=Jazz
TTITLE0=Three In One
TTITLE1=Projections
TTITLE2=A Song Of Uranus
TTITLE3=Senora Nancye
TTITLE4=Dance To The Lady
TTITLE5=Sanpaku
TTITLE6=Eros
TTITLE7=All The Way To The West, By God, Virginia
EXTD=YEAR: 1998
EXTT0=
EXTT1=
EXTT2=
EXTT3=
EXTT4=
EXTT5=
EXTT6=
EXTT7=
PLAYORDER=
